<mxfile host="app.diagrams.net" agent="Mozilla/5.0 (Windows NT 10.0; Win64; x64) AppleWebKit/537.36 (KHTML, like Gecko) Chrome/133.0.0.0 Safari/537.36 OPR/118.0.0.0" version="26.2.14">
  <diagram name="Seite-1" id="QAfuh98mRgSFzJYhW--Q">
    <mxGraphModel dx="1349" dy="940" grid="1" gridSize="10" guides="1" tooltips="1" connect="1" arrows="1" fold="1" page="1" pageScale="1" pageWidth="827" pageHeight="1169" math="0" shadow="0">
      <root>
        <mxCell id="0" />
        <mxCell id="1" parent="0" />
        <mxCell id="WCNpDWAnIxHJfZQUyXH--20" value="" style="rounded=1;whiteSpace=wrap;html=1;fillColor=#f5f5f5;fontColor=#333333;strokeColor=default;" vertex="1" parent="1">
          <mxGeometry x="390" y="420" width="320" height="360" as="geometry" />
        </mxCell>
        <mxCell id="WCNpDWAnIxHJfZQUyXH--2" style="edgeStyle=orthogonalEdgeStyle;rounded=0;orthogonalLoop=1;jettySize=auto;html=1;exitX=0.5;exitY=1;exitDx=0;exitDy=0;strokeWidth=3;" edge="1" parent="1" source="WCNpDWAnIxHJfZQUyXH--1" target="WCNpDWAnIxHJfZQUyXH--3">
          <mxGeometry relative="1" as="geometry">
            <mxPoint x="190" y="170" as="targetPoint" />
            <Array as="points">
              <mxPoint x="190" y="150" />
              <mxPoint x="190" y="150" />
            </Array>
          </mxGeometry>
        </mxCell>
        <mxCell id="WCNpDWAnIxHJfZQUyXH--1" value="&lt;h1&gt;&lt;span style=&quot;color: rgb(34, 40, 50); font-family: -apple-system, BlinkMacSystemFont, &amp;quot;Segoe UI&amp;quot;, &amp;quot;Helvetica Neue&amp;quot;, Arial, sans-serif, &amp;quot;Apple Color Emoji&amp;quot;, &amp;quot;Segoe UI Emoji&amp;quot;, &amp;quot;Segoe UI Symbol&amp;quot;; text-align: start; background-color: rgb(213, 232, 212);&quot;&gt;&lt;font style=&quot;font-size: 13px;&quot;&gt;PAK_Sindh_adm2.gpkg&lt;/font&gt;&lt;/span&gt;&lt;/h1&gt;" style="rounded=1;whiteSpace=wrap;html=1;fillColor=#d5e8d4;strokeColor=#82b366;" vertex="1" parent="1">
          <mxGeometry x="100" y="60" width="180" height="60" as="geometry" />
        </mxCell>
        <mxCell id="WCNpDWAnIxHJfZQUyXH--5" value="" style="edgeStyle=orthogonalEdgeStyle;rounded=0;orthogonalLoop=1;jettySize=auto;html=1;strokeWidth=3;" edge="1" parent="1" source="WCNpDWAnIxHJfZQUyXH--3" target="WCNpDWAnIxHJfZQUyXH--4">
          <mxGeometry relative="1" as="geometry" />
        </mxCell>
        <mxCell id="WCNpDWAnIxHJfZQUyXH--3" value="&lt;b&gt;Export Area of Interest&lt;/b&gt;" style="shape=parallelogram;perimeter=parallelogramPerimeter;whiteSpace=wrap;html=1;fixedSize=1;rounded=1;fillColor=#dae8fc;strokeColor=#6c8ebf;" vertex="1" parent="1">
          <mxGeometry x="90" y="180" width="200" height="60" as="geometry" />
        </mxCell>
        <mxCell id="WCNpDWAnIxHJfZQUyXH--9" value="" style="edgeStyle=orthogonalEdgeStyle;rounded=0;orthogonalLoop=1;jettySize=auto;html=1;strokeWidth=3;" edge="1" parent="1" source="WCNpDWAnIxHJfZQUyXH--4" target="WCNpDWAnIxHJfZQUyXH--7">
          <mxGeometry relative="1" as="geometry" />
        </mxCell>
        <mxCell id="WCNpDWAnIxHJfZQUyXH--4" value="&lt;h1&gt;&lt;span style=&quot;color: rgb(34, 40, 50); font-family: -apple-system, BlinkMacSystemFont, &amp;quot;Segoe UI&amp;quot;, &amp;quot;Helvetica Neue&amp;quot;, Arial, sans-serif, &amp;quot;Apple Color Emoji&amp;quot;, &amp;quot;Segoe UI Emoji&amp;quot;, &amp;quot;Segoe UI Symbol&amp;quot;; text-align: start; background-color: rgb(255, 242, 204);&quot;&gt;&lt;font style=&quot;font-size: 13px;&quot;&gt;Flood_2024_AOI.gpkg&lt;/font&gt;&lt;/span&gt;&lt;/h1&gt;" style="rounded=1;whiteSpace=wrap;html=1;fillColor=#fff2cc;strokeColor=#d6b656;" vertex="1" parent="1">
          <mxGeometry x="100" y="300" width="180" height="60" as="geometry" />
        </mxCell>
        <mxCell id="WCNpDWAnIxHJfZQUyXH--10" value="" style="edgeStyle=orthogonalEdgeStyle;rounded=0;orthogonalLoop=1;jettySize=auto;html=1;strokeWidth=3;entryX=0.5;entryY=0;entryDx=0;entryDy=0;startArrow=none;startFill=0;" edge="1" parent="1" target="WCNpDWAnIxHJfZQUyXH--7">
          <mxGeometry relative="1" as="geometry">
            <mxPoint x="499" y="340" as="sourcePoint" />
            <mxPoint x="190" y="450" as="targetPoint" />
            <Array as="points">
              <mxPoint x="550" y="340" />
              <mxPoint x="550" y="400" />
              <mxPoint x="190" y="400" />
            </Array>
          </mxGeometry>
        </mxCell>
        <mxCell id="WCNpDWAnIxHJfZQUyXH--6" value="&lt;b&gt;PAK_Health_Facilities_&lt;br&gt;complete.gpkg&lt;/b&gt;" style="rounded=1;whiteSpace=wrap;html=1;fillColor=#d5e8d4;strokeColor=#82b366;" vertex="1" parent="1">
          <mxGeometry x="465" y="300" width="170" height="50" as="geometry" />
        </mxCell>
        <mxCell id="WCNpDWAnIxHJfZQUyXH--13" value="" style="edgeStyle=orthogonalEdgeStyle;rounded=0;orthogonalLoop=1;jettySize=auto;html=1;strokeWidth=3;" edge="1" parent="1" source="WCNpDWAnIxHJfZQUyXH--7" target="WCNpDWAnIxHJfZQUyXH--12">
          <mxGeometry relative="1" as="geometry" />
        </mxCell>
        <mxCell id="WCNpDWAnIxHJfZQUyXH--7" value="&lt;b&gt;Extract Health facilities in AOI&lt;/b&gt;&lt;div&gt;Tool: Extract by Location&lt;/div&gt;" style="shape=parallelogram;perimeter=parallelogramPerimeter;whiteSpace=wrap;html=1;fixedSize=1;rounded=1;fillColor=#dae8fc;strokeColor=#6c8ebf;" vertex="1" parent="1">
          <mxGeometry x="90" y="450" width="200" height="60" as="geometry" />
        </mxCell>
        <mxCell id="WCNpDWAnIxHJfZQUyXH--25" value="" style="edgeStyle=orthogonalEdgeStyle;rounded=0;orthogonalLoop=1;jettySize=auto;html=1;strokeWidth=3;" edge="1" parent="1" source="WCNpDWAnIxHJfZQUyXH--12" target="WCNpDWAnIxHJfZQUyXH--21">
          <mxGeometry relative="1" as="geometry" />
        </mxCell>
        <mxCell id="WCNpDWAnIxHJfZQUyXH--12" value="&lt;b&gt;Health_Facilities_Flood_2024_AOI&lt;br&gt;.gpkg&lt;/b&gt;" style="rounded=1;whiteSpace=wrap;html=1;fillColor=#fff2cc;strokeColor=#d6b656;" vertex="1" parent="1">
          <mxGeometry x="90" y="570" width="200" height="55" as="geometry" />
        </mxCell>
        <mxCell id="WCNpDWAnIxHJfZQUyXH--16" value="" style="edgeStyle=orthogonalEdgeStyle;rounded=0;orthogonalLoop=1;jettySize=auto;html=1;strokeWidth=3;" edge="1" parent="1" source="WCNpDWAnIxHJfZQUyXH--14" target="WCNpDWAnIxHJfZQUyXH--15">
          <mxGeometry relative="1" as="geometry" />
        </mxCell>
        <mxCell id="WCNpDWAnIxHJfZQUyXH--14" value="&lt;b&gt;VIIRS_20240721_20240803_&lt;br&gt;MinimumFloodExtent_PAK.shp&lt;/b&gt;" style="rounded=1;whiteSpace=wrap;html=1;fillColor=#d5e8d4;strokeColor=#82b366;" vertex="1" parent="1">
          <mxGeometry x="457" y="460" width="186" height="57.5" as="geometry" />
        </mxCell>
        <mxCell id="WCNpDWAnIxHJfZQUyXH--18" value="" style="edgeStyle=orthogonalEdgeStyle;rounded=0;orthogonalLoop=1;jettySize=auto;html=1;strokeWidth=3;" edge="1" parent="1" source="WCNpDWAnIxHJfZQUyXH--15" target="WCNpDWAnIxHJfZQUyXH--17">
          <mxGeometry relative="1" as="geometry" />
        </mxCell>
        <mxCell id="WCNpDWAnIxHJfZQUyXH--15" value="&lt;b&gt;Reproject Layer into correct CRS&lt;/b&gt;&lt;div&gt;Tool: Reproject Layer&amp;nbsp;&lt;/div&gt;" style="shape=parallelogram;perimeter=parallelogramPerimeter;whiteSpace=wrap;html=1;fixedSize=1;fillColor=#dae8fc;strokeColor=#6c8ebf;rounded=1;" vertex="1" parent="1">
          <mxGeometry x="440" y="570" width="220" height="50" as="geometry" />
        </mxCell>
        <mxCell id="WCNpDWAnIxHJfZQUyXH--22" value="" style="edgeStyle=orthogonalEdgeStyle;rounded=0;orthogonalLoop=1;jettySize=auto;html=1;strokeWidth=3;" edge="1" parent="1" source="WCNpDWAnIxHJfZQUyXH--17" target="WCNpDWAnIxHJfZQUyXH--21">
          <mxGeometry relative="1" as="geometry" />
        </mxCell>
        <mxCell id="WCNpDWAnIxHJfZQUyXH--17" value="&lt;b&gt;2024_MinFloodExtent_reprojected&lt;br&gt;.gpkg&lt;/b&gt;" style="whiteSpace=wrap;html=1;fillColor=#fff2cc;strokeColor=#d6b656;rounded=1;" vertex="1" parent="1">
          <mxGeometry x="451" y="680" width="198" height="60" as="geometry" />
        </mxCell>
        <mxCell id="WCNpDWAnIxHJfZQUyXH--28" value="" style="edgeStyle=orthogonalEdgeStyle;rounded=0;orthogonalLoop=1;jettySize=auto;html=1;strokeWidth=3;" edge="1" parent="1" source="WCNpDWAnIxHJfZQUyXH--21">
          <mxGeometry relative="1" as="geometry">
            <mxPoint x="190" y="790" as="targetPoint" />
          </mxGeometry>
        </mxCell>
        <mxCell id="WCNpDWAnIxHJfZQUyXH--21" value="&lt;b&gt;Select Healthsites in the &lt;/b&gt;&lt;br&gt;&lt;b&gt;flooded area&lt;/b&gt;&lt;br&gt;Tool: Select by Location" style="shape=parallelogram;perimeter=parallelogramPerimeter;whiteSpace=wrap;html=1;fixedSize=1;fillColor=#dae8fc;strokeColor=#6c8ebf;rounded=1;" vertex="1" parent="1">
          <mxGeometry x="90" y="680" width="200" height="60" as="geometry" />
        </mxCell>
        <mxCell id="WCNpDWAnIxHJfZQUyXH--24" style="edgeStyle=orthogonalEdgeStyle;rounded=0;orthogonalLoop=1;jettySize=auto;html=1;exitX=0.5;exitY=1;exitDx=0;exitDy=0;" edge="1" parent="1" source="WCNpDWAnIxHJfZQUyXH--21" target="WCNpDWAnIxHJfZQUyXH--21">
          <mxGeometry relative="1" as="geometry" />
        </mxCell>
        <mxCell id="WCNpDWAnIxHJfZQUyXH--34" value="" style="edgeStyle=orthogonalEdgeStyle;rounded=0;orthogonalLoop=1;jettySize=auto;html=1;strokeWidth=3;" edge="1" parent="1" source="WCNpDWAnIxHJfZQUyXH--30" target="WCNpDWAnIxHJfZQUyXH--31">
          <mxGeometry relative="1" as="geometry" />
        </mxCell>
        <mxCell id="WCNpDWAnIxHJfZQUyXH--30" value="&lt;b&gt;Add new column containing&amp;nbsp;&lt;br&gt;information whether the &lt;br&gt;healthsite&amp;nbsp;is flooded&lt;/b&gt;&lt;div&gt;Edit the Attribute table&lt;/div&gt;" style="shape=parallelogram;perimeter=parallelogramPerimeter;whiteSpace=wrap;html=1;fixedSize=1;shadow=0;rounded=1;fillColor=#dae8fc;strokeColor=#6c8ebf;" vertex="1" parent="1">
          <mxGeometry x="80" y="790" width="210" height="70" as="geometry" />
        </mxCell>
        <mxCell id="WCNpDWAnIxHJfZQUyXH--31" value="&lt;b&gt;Visualise the healthsites&lt;/b&gt;&lt;br&gt;&lt;b&gt;situated inside the flood extent&lt;/b&gt;&lt;br&gt;Tool:Symbolisation Tab" style="shape=parallelogram;perimeter=parallelogramPerimeter;whiteSpace=wrap;html=1;fixedSize=1;shadow=0;rounded=1;fillColor=#dae8fc;strokeColor=#6c8ebf;" vertex="1" parent="1">
          <mxGeometry x="80" y="900" width="210" height="70" as="geometry" />
        </mxCell>
        <mxCell id="WCNpDWAnIxHJfZQUyXH--37" value="" style="edgeStyle=orthogonalEdgeStyle;rounded=0;orthogonalLoop=1;jettySize=auto;html=1;strokeWidth=3;" edge="1" parent="1" source="WCNpDWAnIxHJfZQUyXH--35" target="WCNpDWAnIxHJfZQUyXH--36">
          <mxGeometry relative="1" as="geometry" />
        </mxCell>
        <mxCell id="WCNpDWAnIxHJfZQUyXH--35" value="&lt;b&gt;&lt;font style=&quot;font-size: 13px;&quot;&gt;Roads_Larkana.gpkg&lt;/font&gt;&lt;/b&gt;" style="rounded=1;whiteSpace=wrap;html=1;fillColor=#d5e8d4;strokeColor=#82b366;" vertex="1" parent="1">
          <mxGeometry x="104" y="1014" width="175" height="60" as="geometry" />
        </mxCell>
        <mxCell id="WCNpDWAnIxHJfZQUyXH--36" value="&lt;b&gt;Classify Roads&lt;/b&gt;&lt;div&gt;Tool: Symbolisation Tab&lt;/div&gt;" style="shape=parallelogram;perimeter=parallelogramPerimeter;whiteSpace=wrap;html=1;fixedSize=1;fillColor=#dae8fc;strokeColor=#6c8ebf;rounded=1;" vertex="1" parent="1">
          <mxGeometry x="96" y="1119" width="190" height="50" as="geometry" />
        </mxCell>
        <mxCell id="WCNpDWAnIxHJfZQUyXH--42" value="" style="edgeStyle=orthogonalEdgeStyle;rounded=0;orthogonalLoop=1;jettySize=auto;html=1;strokeWidth=3;" edge="1" parent="1" source="WCNpDWAnIxHJfZQUyXH--39" target="WCNpDWAnIxHJfZQUyXH--41">
          <mxGeometry relative="1" as="geometry" />
        </mxCell>
        <mxCell id="WCNpDWAnIxHJfZQUyXH--39" value="&lt;b&gt;Create new layer&lt;/b&gt;" style="shape=parallelogram;perimeter=parallelogramPerimeter;whiteSpace=wrap;html=1;fixedSize=1;fillColor=#d5e8d4;strokeColor=#82b366;shadow=0;rounded=1;" vertex="1" parent="1">
          <mxGeometry x="100" y="1220" width="180" height="60" as="geometry" />
        </mxCell>
        <mxCell id="WCNpDWAnIxHJfZQUyXH--44" value="" style="edgeStyle=orthogonalEdgeStyle;rounded=0;orthogonalLoop=1;jettySize=auto;html=1;strokeWidth=3;" edge="1" parent="1" source="WCNpDWAnIxHJfZQUyXH--41" target="WCNpDWAnIxHJfZQUyXH--43">
          <mxGeometry relative="1" as="geometry" />
        </mxCell>
        <mxCell id="WCNpDWAnIxHJfZQUyXH--41" value="&lt;b&gt;Digitise Blocked (flooded)&amp;nbsp;&lt;br&gt;Roads&lt;/b&gt;&lt;div&gt;Tool: Digitisation Toolbar&lt;/div&gt;" style="shape=parallelogram;perimeter=parallelogramPerimeter;whiteSpace=wrap;html=1;fixedSize=1;fillColor=#dae8fc;strokeColor=#6c8ebf;shadow=0;rounded=1;" vertex="1" parent="1">
          <mxGeometry x="99" y="1320" width="180" height="60" as="geometry" />
        </mxCell>
        <mxCell id="WCNpDWAnIxHJfZQUyXH--46" value="" style="edgeStyle=orthogonalEdgeStyle;rounded=0;orthogonalLoop=1;jettySize=auto;html=1;strokeWidth=3;" edge="1" parent="1" source="WCNpDWAnIxHJfZQUyXH--43" target="WCNpDWAnIxHJfZQUyXH--45">
          <mxGeometry relative="1" as="geometry" />
        </mxCell>
        <mxCell id="WCNpDWAnIxHJfZQUyXH--43" value="&lt;b&gt;PAK_flood_2024_blocked&lt;br&gt;_road.gpkg&lt;/b&gt;" style="rounded=1;whiteSpace=wrap;html=1;fillColor=#fff2cc;strokeColor=#d6b656;" vertex="1" parent="1">
          <mxGeometry x="110" y="1420" width="160" height="60" as="geometry" />
        </mxCell>
        <mxCell id="WCNpDWAnIxHJfZQUyXH--45" value="&lt;b&gt;Symbolise blocked&lt;br&gt;&amp;nbsp;roads points&lt;/b&gt;&lt;div&gt;Tool: Symbolisation Tab&lt;/div&gt;" style="shape=parallelogram;perimeter=parallelogramPerimeter;whiteSpace=wrap;html=1;fixedSize=1;fillColor=#dae8fc;strokeColor=#6c8ebf;rounded=1;" vertex="1" parent="1">
          <mxGeometry x="110" y="1520" width="159" height="60" as="geometry" />
        </mxCell>
      </root>
    </mxGraphModel>
  </diagram>
</mxfile>
